<svg width="66" height="46" viewBox="0 0 66 46" fill="none" xmlns="http://www.w3.org/2000/svg">
<path d="M61.0702 1H4.92982C2.75944 1 1 2.75944 1 4.92982V40.8596C1 43.03 2.75944 44.7895 4.92982 44.7895H61.0702C63.2406 44.7895 65 43.03 65 40.8596V4.92982C65 2.75944 63.2406 1 61.0702 1Z" fill="white" stroke="#F3F3F3" stroke-width="1.03448"/>
<path fill-rule="evenodd" clip-rule="evenodd" d="M20.1743 17.1982C19.7007 17.765 18.9428 18.212 18.1849 18.1481C18.0901 17.3818 18.4611 16.5676 18.8954 16.0648C19.369 15.4821 20.198 15.067 20.8691 15.0351C20.948 15.8333 20.6401 16.6156 20.1743 17.1982ZM20.8611 18.2998C20.1935 18.2609 19.5842 18.5028 19.0921 18.6981C18.7755 18.8239 18.5072 18.9303 18.3032 18.9303C18.0743 18.9303 17.795 18.8182 17.4816 18.6922C17.0707 18.5272 16.6011 18.3386 16.1085 18.3476C14.9796 18.3637 13.9296 19.0102 13.3532 20.0398C12.169 22.0992 13.0453 25.1483 14.19 26.8246C14.7507 27.6547 15.4217 28.5647 16.3059 28.5327C16.6949 28.5179 16.9747 28.3978 17.2643 28.2735C17.5977 28.1305 17.944 27.982 18.4848 27.982C19.0069 27.982 19.3381 28.1267 19.656 28.2656C19.9582 28.3977 20.2486 28.5245 20.6795 28.5167C21.5954 28.5008 22.1716 27.6867 22.7323 26.8565C23.3371 25.9655 23.6029 25.096 23.6433 24.9641L23.648 24.9488C23.648 24.9488 23.6396 24.9443 23.6263 24.9382C23.4241 24.8446 21.8786 24.1293 21.8638 22.2109C21.8489 20.6008 23.0896 19.785 23.285 19.6566C23.2969 19.6487 23.3049 19.6434 23.3085 19.6407C22.519 18.4594 21.2874 18.3317 20.8611 18.2998ZM27.2006 28.4289V15.985H31.819C34.2033 15.985 35.8691 17.6452 35.8691 20.0718C35.8691 22.4983 34.1716 24.1745 31.7559 24.1745H29.1111V28.4289H27.2006ZM29.1111 17.6133H31.3138C32.9717 17.6133 33.919 18.5073 33.919 20.0797C33.919 21.6522 32.9717 22.5542 31.3059 22.5542H29.1111V17.6133ZM42.1769 26.9363C41.6716 27.9101 40.5585 28.5247 39.3586 28.5247C37.5822 28.5247 36.3427 27.4551 36.3427 25.8428C36.3427 24.2464 37.5428 23.3285 39.7612 23.1927L42.1454 23.049V22.3626C42.1454 21.3489 41.4901 20.7981 40.3217 20.7981C39.3586 20.7981 38.6559 21.301 38.5138 22.0672H36.7927C36.848 20.4549 38.348 19.2815 40.3769 19.2815C42.5637 19.2815 43.9849 20.4389 43.9849 22.2349V28.4289H42.2164V26.9363H42.1769ZM39.8717 27.0481C38.8533 27.0481 38.2059 26.5532 38.2059 25.7948C38.2059 25.0127 38.8296 24.5576 40.0217 24.4859L42.1454 24.3501V25.0525C42.1454 26.2179 41.1664 27.0481 39.8717 27.0481ZM49.8506 28.9159C49.0849 31.0949 48.2085 31.8133 46.3453 31.8133C46.2033 31.8133 45.7296 31.7974 45.619 31.7655V30.2728C45.7374 30.2888 46.0296 30.3047 46.1796 30.3047C47.0243 30.3047 47.498 29.9455 47.7901 29.0117L47.9637 28.4608L44.7269 19.4012H46.7243L48.9743 26.7527H49.0138L51.2638 19.4012H53.2059L49.8506 28.9159Z" fill="black"/>
</svg>
