<svg width="24" height="14" viewBox="0 0 24 14" fill="none" xmlns="http://www.w3.org/2000/svg">
<path d="M23.1869 2.44749C23.5828 2.05172 23.5829 1.4099 23.1872 1.01396L22.4705 0.29705C22.0748 -0.0988935 21.4329 -0.0990353 21.037 0.296736L9.86562 11.4633C9.46971 11.8591 9.46958 12.501 9.86531 12.8969L10.582 13.6138C10.9777 14.0097 11.6195 14.0099 12.0155 13.6141L23.1869 2.44749Z" fill="white"/>
<path d="M17.1054 2.44738C17.5012 2.05152 17.5012 1.40971 17.1054 1.01386L16.3887 0.297095C15.9928 -0.0987673 15.351 -0.0987673 14.9551 0.297095L5.2628 9.98941L2.44718 7.17378C2.05133 6.77795 1.40951 6.77795 1.01366 7.17378L0.296893 7.89054C-0.0989648 8.28647 -0.0989638 8.92822 0.296893 9.32415L4.54603 13.5733C4.94189 13.9691 5.5837 13.9691 5.97956 13.5733L17.1054 2.44738Z" fill="white"/>
</svg>
