<svg width="66" height="46" viewBox="0 0 66 46" fill="none" xmlns="http://www.w3.org/2000/svg">
<path d="M61.0702 1H4.92982C2.75944 1 1 2.75944 1 4.92982V40.8596C1 43.03 2.75944 44.7895 4.92982 44.7895H61.0702C63.2406 44.7895 65 43.03 65 40.8596V4.92982C65 2.75944 63.2406 1 61.0702 1Z" fill="white" stroke="#F3F3F3" stroke-width="1.03448"/>
<path fill-rule="evenodd" clip-rule="evenodd" d="M31.7844 27.5187V22.4536L34.5245 22.4526C35.6541 22.4532 36.6036 22.0983 37.3727 21.3877C38.15 20.7132 38.5845 19.7436 38.5624 18.7329C38.5778 17.7278 38.1441 16.7653 37.3727 16.093C36.6103 15.3786 35.585 14.9887 34.5245 15.0102H30.126V27.5187H31.7844ZM31.7844 20.9166V16.5502L34.5657 16.5492C35.1856 16.5322 35.7831 16.774 36.2067 17.2129C36.6328 17.6143 36.8731 18.1656 36.8731 18.7414C36.8731 19.3171 36.6328 19.8685 36.2067 20.2698C35.7779 20.6995 35.1822 20.9343 34.5657 20.9166H31.7844Z" fill="#5F6368"/>
<path fill-rule="evenodd" clip-rule="evenodd" d="M45.287 19.6331C44.5776 18.9983 43.6101 18.681 42.3842 18.681C40.8096 18.681 39.6204 19.2398 38.8169 20.3576L40.2777 21.2489C40.8174 20.4917 41.5505 20.1131 42.4769 20.1131C43.0675 20.1065 43.6392 20.3156 44.0777 20.699C44.5149 21.0493 44.7665 21.5715 44.7627 22.1212V22.4885C44.1254 22.1392 43.3144 21.9645 42.3296 21.9645C41.1759 21.9658 40.2537 22.228 39.5628 22.751C38.8719 23.2739 38.5265 23.9782 38.5265 24.8638C38.5114 25.6702 38.8725 26.4402 39.5092 26.9597C40.1643 27.5187 40.9784 27.7981 41.9516 27.7981C43.0916 27.7981 44.0049 27.3091 44.6917 26.331H44.7638V27.5187H46.3501V22.244C46.3507 21.1381 45.9964 20.2678 45.287 19.6331ZM40.7886 25.9468C40.4412 25.7041 40.2363 25.3137 40.2385 24.8987C40.2385 24.4326 40.4641 24.0445 40.9184 23.7251C41.3682 23.4103 41.9299 23.253 42.6036 23.253C43.5287 23.253 44.2497 23.4525 44.7668 23.8518C44.7668 24.5265 44.4921 25.1143 43.9428 25.6154C43.4479 26.0948 42.7771 26.3648 42.0772 26.3659C41.6107 26.3743 41.1554 26.2263 40.7886 25.9468Z" fill="#5F6368"/>
<path fill-rule="evenodd" clip-rule="evenodd" d="M55.4561 18.9604L49.9183 31.2913H48.2062L50.2613 26.9767L46.6199 18.9604H48.4226L51.0545 25.1084H51.0905L53.6503 18.9604H55.4561Z" fill="#5F6368"/>
<path fill-rule="evenodd" clip-rule="evenodd" d="M25.0826 21.3618C25.0833 20.8721 25.0405 20.3832 24.9549 19.9007H17.9605V22.6683H21.9666C21.801 23.5615 21.2658 24.3503 20.4853 24.852V26.6485H22.8762C24.2761 25.3979 25.0826 23.5485 25.0826 21.3618Z" fill="#4285F4"/>
<path fill-rule="evenodd" clip-rule="evenodd" d="M17.9605 28.384C19.9621 28.384 21.6473 27.7472 22.8762 26.6494L20.4853 24.8529C19.8199 25.29 18.9629 25.5395 17.9605 25.5395C16.0261 25.5395 14.3841 24.276 13.7969 22.5733H11.3339V24.4247C12.5928 26.852 15.1569 28.3838 17.9605 28.384Z" fill="#34A853"/>
<path fill-rule="evenodd" clip-rule="evenodd" d="M13.797 22.5734C13.4865 21.6812 13.4865 20.7149 13.797 19.8227V17.9713H11.3339C10.2809 20.0015 10.2809 22.3946 11.3339 24.4248L13.797 22.5734Z" fill="#FBBC04"/>
<path fill-rule="evenodd" clip-rule="evenodd" d="M17.9605 16.8566C19.0182 16.8398 20.0402 17.227 20.8057 17.9345L22.9226 15.8835C21.5802 14.662 19.8019 13.9913 17.9605 14.0121C15.1569 14.0122 12.5928 15.5442 11.3339 17.9713L13.7969 19.8227C14.3841 18.1201 16.0261 16.8566 17.9605 16.8566Z" fill="#EA4335"/>
</svg>
