<svg width="66" height="46" viewBox="0 0 66 46" fill="none" xmlns="http://www.w3.org/2000/svg">
<path d="M61.0702 1H4.92982C2.75944 1 1 2.75944 1 4.92982V40.8596C1 43.03 2.75944 44.7895 4.92982 44.7895H61.0702C63.2406 44.7895 65 43.03 65 40.8596V4.92982C65 2.75944 63.2406 1 61.0702 1Z" fill="white" stroke="#F3F3F3" stroke-width="1.03448"/>
<path fill-rule="evenodd" clip-rule="evenodd" d="M24.297 35.1228V36.7809V38.4392H23.5702V38.0366C23.3397 38.3352 22.99 38.5226 22.5146 38.5226C21.5772 38.5226 20.8425 37.7944 20.8425 36.7809C20.8425 35.7684 21.5772 35.0393 22.5146 35.0393C22.99 35.0393 23.3397 35.2267 23.5702 35.5254V35.1228H24.297ZM22.6049 35.7192C21.9758 35.7192 21.5908 36.1981 21.5908 36.7809C21.5908 37.3639 21.9758 37.8428 22.6049 37.8428C23.2061 37.8428 23.6119 37.3846 23.6119 36.7809C23.6119 36.1774 23.2061 35.7192 22.6049 35.7192ZM48.8572 36.7809C48.8572 36.1981 49.2422 35.7192 49.8713 35.7192C50.4732 35.7192 50.8782 36.1774 50.8782 36.7809C50.8782 37.3846 50.4732 37.8428 49.8713 37.8428C49.2422 37.8428 48.8572 37.3639 48.8572 36.7809ZM51.5643 33.7909V36.7809V38.4392H50.8367V38.0366C50.6061 38.3352 50.2563 38.5226 49.7809 38.5226C48.8436 38.5226 48.1088 37.7944 48.1088 36.7809C48.1088 35.7684 48.8436 35.0393 49.7809 35.0393C50.2563 35.0393 50.6061 35.2267 50.8367 35.5254V33.7909H51.5643ZM33.3187 35.6851C33.7869 35.6851 34.0878 35.9764 34.1647 36.4896H32.4302C32.5078 36.0107 32.8007 35.6851 33.3187 35.6851ZM31.6681 36.7809C31.6681 35.7469 32.3533 35.0393 33.333 35.0393C34.2696 35.0393 34.913 35.7469 34.9202 36.7809C34.9202 36.8778 34.913 36.9684 34.9059 37.0582H32.4238C32.5287 37.6554 32.9552 37.8706 33.4234 37.8706C33.7588 37.8706 34.1158 37.7451 34.396 37.5236L34.7521 38.058C34.3464 38.3979 33.8853 38.5226 33.3819 38.5226C32.3813 38.5226 31.6681 37.8357 31.6681 36.7809ZM42.1089 36.7809C42.1089 36.1981 42.4939 35.7192 43.123 35.7192C43.724 35.7192 44.1299 36.1774 44.1299 36.7809C44.1299 37.3846 43.724 37.8428 43.123 37.8428C42.4939 37.8428 42.1089 37.3639 42.1089 36.7809ZM44.8151 35.1228V36.7809V38.4392H44.0883V38.0366C43.857 38.3352 43.508 38.5226 43.0325 38.5226C42.0952 38.5226 41.3604 37.7944 41.3604 36.7809C41.3604 35.7684 42.0952 35.0393 43.0325 35.0393C43.508 35.0393 43.857 35.2267 44.0883 35.5254V35.1228H44.8151ZM38.0042 36.7809C38.0042 37.7872 38.7103 38.5226 39.7876 38.5226C40.2911 38.5226 40.6264 38.4115 40.9899 38.1271L40.6408 37.5442C40.368 37.7388 40.0813 37.8428 39.766 37.8428C39.1857 37.8357 38.7591 37.4195 38.7591 36.7809C38.7591 36.1425 39.1857 35.7263 39.766 35.7192C40.0813 35.7192 40.368 35.8232 40.6408 36.0178L40.9899 35.4348C40.6264 35.1505 40.2911 35.0393 39.7876 35.0393C38.7103 35.0393 38.0042 35.7748 38.0042 36.7809ZM46.4936 35.5254C46.6824 35.2339 46.9554 35.0393 47.3749 35.0393C47.5221 35.0393 47.7318 35.0672 47.8927 35.1298L47.6686 35.8097C47.5149 35.7469 47.3612 35.7263 47.214 35.7263C46.7385 35.7263 46.5008 36.0312 46.5008 36.5801V38.4392H45.7732V35.1228H46.4936V35.5254ZM27.8918 35.3864C27.5419 35.1577 27.0601 35.0393 26.5286 35.0393C25.6818 35.0393 25.1367 35.442 25.1367 36.1012C25.1367 36.642 25.5425 36.9755 26.2901 37.0796L26.6335 37.128C27.0321 37.1837 27.2202 37.2877 27.2202 37.475C27.2202 37.7316 26.9545 37.8777 26.4582 37.8777C25.9547 37.8777 25.5914 37.7181 25.3464 37.5306L25.0038 38.0921C25.4024 38.3836 25.9059 38.5226 26.451 38.5226C27.4163 38.5226 27.9758 38.0715 27.9758 37.4401C27.9758 36.8572 27.5355 36.5522 26.808 36.4482L26.4654 36.3989C26.1509 36.3576 25.8987 36.2958 25.8987 36.0733C25.8987 35.8304 26.1364 35.6851 26.535 35.6851C26.9617 35.6851 27.3746 35.8446 27.5772 35.9694L27.8918 35.3864ZM36.3891 35.5254C36.5772 35.2339 36.8501 35.0393 37.2695 35.0393C37.4168 35.0393 37.6265 35.0672 37.7873 35.1298L37.5632 35.8097C37.4096 35.7469 37.2559 35.7263 37.1086 35.7263C36.6332 35.7263 36.3955 36.0312 36.3955 36.5801V38.4392H35.6687V35.1228H36.3891V35.5254ZM31.067 35.1228H29.8784V34.1165H29.1436V35.1228H28.4657V35.7819H29.1436V37.2948C29.1436 38.0644 29.4445 38.5226 30.3043 38.5226C30.6195 38.5226 30.983 38.4257 31.2135 38.2661L31.0038 37.6482C30.7868 37.7729 30.5491 37.8357 30.3603 37.8357C29.9968 37.8357 29.8784 37.6133 29.8784 37.2805V35.7819H31.067V35.1228ZM20.1997 36.3576V38.4392H19.4649V36.5935C19.4649 36.0312 19.2272 35.7192 18.7309 35.7192C18.2482 35.7192 17.9128 36.0249 17.9128 36.6007V38.4392H17.1781V36.5935C17.1781 36.0312 16.934 35.7192 16.4513 35.7192C15.9542 35.7192 15.6325 36.0249 15.6325 36.6007V38.4392H14.8986V35.1228H15.6261V35.5317C15.8991 35.1434 16.2481 35.0393 16.605 35.0393C17.1157 35.0393 17.4791 35.2618 17.7096 35.6294C18.0177 35.1641 18.458 35.0322 18.8846 35.0393C19.6962 35.0465 20.1997 35.5738 20.1997 36.3576Z" fill="#231F20"/>
<path d="M38.6662 29.4873H27.6508V9.84581H38.6662V29.4873Z" fill="#FF5F00"/>
<path d="M28.3497 19.667C28.3497 15.6826 30.2298 12.1334 33.1578 9.84622C31.0167 8.17369 28.3144 7.17542 25.3777 7.17542C18.4253 7.17542 12.7895 12.768 12.7895 19.667C12.7895 26.566 18.4253 32.1586 25.3777 32.1586C28.3144 32.1586 31.0167 31.1603 33.1578 29.4877C30.2298 27.2006 28.3497 23.6514 28.3497 19.667Z" fill="#EB001B"/>
<path d="M53.5269 19.667C53.5269 26.566 47.8911 32.1586 40.9387 32.1586C38.0018 32.1586 35.2997 31.1603 33.1577 29.4877C36.0864 27.2006 37.9667 23.6514 37.9667 19.667C37.9667 15.6826 36.0864 12.1334 33.1577 9.84622C35.2997 8.17369 38.0018 7.17542 40.9387 7.17542C47.8911 7.17542 53.5269 12.768 53.5269 19.667Z" fill="#F79E1B"/>
</svg>
