<svg width="66" height="46" viewBox="0 0 66 46" fill="none" xmlns="http://www.w3.org/2000/svg">
<path d="M61.0702 1H4.92982C2.75944 1 1 2.75944 1 4.92982V40.8596C1 43.03 2.75944 44.7895 4.92982 44.7895H61.0702C63.2406 44.7895 65 43.03 65 40.8596V4.92982C65 2.75944 63.2406 1 61.0702 1Z" fill="white" stroke="#F3F3F3" stroke-width="1.03448"/>
<path fill-rule="evenodd" clip-rule="evenodd" d="M30.1243 23.1824L30.4078 21.3764L29.7762 21.3617H26.7604L28.8563 8.03444C28.8628 7.99409 28.8839 7.95663 28.9148 7.92998C28.9458 7.90332 28.9852 7.8887 29.0265 7.8887H34.1117C35.7999 7.8887 36.965 8.24095 37.5732 8.93629C37.8584 9.2625 38.0399 9.60346 38.1278 9.97856C38.22 10.3722 38.2216 10.8425 38.1317 11.4162L38.1252 11.4579V11.8255L38.4103 11.9876C38.6504 12.1153 38.8413 12.2615 38.9877 12.4288C39.2316 12.7078 39.3893 13.0624 39.456 13.4826C39.525 13.9148 39.5022 14.4292 39.3893 15.0115C39.2592 15.6813 39.0489 16.2647 38.7648 16.742C38.5035 17.1818 38.1707 17.5467 37.7754 17.8293C37.3981 18.098 36.9498 18.3019 36.443 18.4324C35.9516 18.5606 35.3917 18.6253 34.7774 18.6253H34.3816C34.0988 18.6253 33.8239 18.7276 33.6081 18.9107C33.3917 19.0977 33.2487 19.3533 33.2048 19.6326L33.1749 19.7953L32.6739 22.9786L32.6512 23.0954C32.6452 23.1324 32.6349 23.1509 32.6197 23.1633C32.6062 23.1748 32.5868 23.1824 32.5677 23.1824H30.1243Z" fill="#28356A"/>
<path fill-rule="evenodd" clip-rule="evenodd" d="M38.6801 11.5003C38.6651 11.5976 38.6477 11.697 38.6281 11.7993C37.9576 15.2522 35.6632 16.4451 32.733 16.4451H31.2411C30.8827 16.4451 30.5806 16.7059 30.5249 17.0604L29.5447 23.2959C29.5085 23.5288 29.6873 23.7384 29.9214 23.7384H32.5677C32.8809 23.7384 33.1471 23.5101 33.1965 23.2003L33.2225 23.0655L33.7207 19.8947L33.7528 19.7208C33.8015 19.4098 34.0683 19.1814 34.3816 19.1814H34.7773C37.341 19.1814 39.3481 18.1376 39.9347 15.1168C40.1796 13.8549 40.0528 12.8013 39.4044 12.0602C39.2083 11.8369 38.9648 11.6513 38.6801 11.5003Z" fill="#298FC2"/>
<path fill-rule="evenodd" clip-rule="evenodd" d="M37.9787 11.2199C37.8762 11.1899 37.7705 11.1628 37.6621 11.1382C37.5531 11.1143 37.4415 11.0932 37.3265 11.0746C36.9243 11.0094 36.4835 10.9785 36.0113 10.9785H32.0256C31.9273 10.9785 31.8342 11.0007 31.7507 11.0409C31.5668 11.1296 31.4303 11.3041 31.3973 11.5177L30.5493 16.9036L30.525 17.0605C30.5808 16.7061 30.8828 16.4451 31.2411 16.4451H32.7331C35.6633 16.4451 37.9576 15.2517 38.6283 11.7993C38.6482 11.6971 38.6651 11.5977 38.6801 11.5004C38.5105 11.4101 38.3268 11.3329 38.129 11.2671C38.08 11.2508 38.0296 11.2351 37.9787 11.2199Z" fill="#22284F"/>
<path fill-rule="evenodd" clip-rule="evenodd" d="M31.3973 11.5177C31.4304 11.3041 31.5668 11.1296 31.7507 11.0415C31.8347 11.0012 31.9274 10.979 32.0256 10.979H36.0113C36.4835 10.979 36.9243 11.01 37.3266 11.0752C37.4415 11.0936 37.5531 11.115 37.6621 11.1389C37.7706 11.1632 37.8762 11.1905 37.9787 11.2203C38.0296 11.2356 38.08 11.2514 38.1294 11.2671C38.3272 11.3329 38.5112 11.4107 38.6808 11.5004C38.8803 10.2244 38.6791 9.35557 37.9912 8.56884C37.2327 7.70263 35.8639 7.33196 34.1122 7.33196H29.0269C28.6692 7.33196 28.364 7.59283 28.3087 7.94796L26.1906 21.4122C26.1488 21.6785 26.3537 21.9189 26.6216 21.9189H29.761L31.3973 11.5177Z" fill="#28356A"/>
<path fill-rule="evenodd" clip-rule="evenodd" d="M15.1413 26.848H11.4336C11.1799 26.848 10.9641 27.0328 10.9245 27.2841L9.4249 36.8186C9.39514 37.0069 9.54047 37.1763 9.73074 37.1763H11.5007C11.7544 37.1763 11.9702 36.9916 12.0099 36.7398L12.4143 34.1682C12.4533 33.9164 12.6695 33.7316 12.9228 33.7316H14.0965C16.5388 33.7316 17.9483 32.5463 18.3166 30.1977C18.4824 29.1701 18.3235 28.3628 17.8436 27.7974C17.3167 27.1765 16.3821 26.848 15.1413 26.848ZM15.569 30.3304C15.3662 31.6645 14.3497 31.6645 13.3669 31.6645H12.8073L13.1998 29.1728C13.2232 29.0222 13.3532 28.9113 13.5051 28.9113H13.7616C14.4311 28.9113 15.0627 28.9113 15.389 29.2941C15.5837 29.5223 15.6432 29.8616 15.569 30.3304Z" fill="#28356A"/>
<path fill-rule="evenodd" clip-rule="evenodd" d="M26.3188 30.2153H24.5433C24.392 30.2153 24.2612 30.3263 24.238 30.4768L24.1594 30.9748L24.0353 30.7944C23.651 30.2349 22.7937 30.0478 21.9384 30.0478C19.9763 30.0478 18.3006 31.5381 17.9742 33.6285C17.8045 34.6713 18.0457 35.6685 18.6356 36.3638C19.1767 37.0031 19.9509 37.2696 20.8719 37.2696C22.4528 37.2696 23.3293 36.2502 23.3293 36.2502L23.2503 36.745C23.2205 36.9341 23.3658 37.1037 23.555 37.1037H25.1542C25.4085 37.1037 25.6232 36.9189 25.6634 36.6672L26.6229 30.5731C26.6533 30.3854 26.5084 30.2153 26.3188 30.2153ZM23.8438 33.6809C23.6725 34.6979 22.8676 35.3808 21.8407 35.3808C21.3252 35.3808 20.9132 35.215 20.6485 34.9008C20.3861 34.5888 20.2865 34.1446 20.3698 33.6498C20.5299 32.6413 21.3484 31.936 22.3596 31.936C22.8638 31.936 23.2736 32.1042 23.5436 32.421C23.814 32.7412 23.9215 33.1882 23.8438 33.6809Z" fill="#28356A"/>
<path fill-rule="evenodd" clip-rule="evenodd" d="M35.638 30.3677H33.8538C33.6836 30.3677 33.5237 30.4526 33.4272 30.5945L30.9664 34.2295L29.9233 30.7363C29.8577 30.5177 29.6566 30.3677 29.4289 30.3677H27.6758C27.4625 30.3677 27.3147 30.5765 27.3824 30.7777L29.3476 36.5613L27.5 39.177C27.3547 39.383 27.501 39.6663 27.7521 39.6663H29.5341C29.7033 39.6663 29.8615 39.5836 29.9575 39.4446L35.8917 30.8543C36.0338 30.6488 35.8879 30.3677 35.638 30.3677Z" fill="#28356A"/>
<path fill-rule="evenodd" clip-rule="evenodd" d="M41.5859 26.848H37.8779C37.6247 26.848 37.4089 27.0328 37.3692 27.2841L35.8697 36.8186C35.84 37.0069 35.9853 37.1763 36.1745 37.1763H38.0774C38.254 37.1763 38.4052 37.047 38.4329 36.8709L38.8585 34.1682C38.8975 33.9164 39.114 33.7316 39.367 33.7316H40.5403C42.983 33.7316 44.3921 32.5463 44.7608 30.1977C44.9272 29.1701 44.7673 28.3628 44.2874 27.7974C43.7609 27.1765 42.8269 26.848 41.5859 26.848ZM42.0137 30.3304C41.8115 31.6645 40.7949 31.6645 39.8116 31.6645H39.2527L39.6457 29.1728C39.669 29.0222 39.798 28.9113 39.9503 28.9113H40.2068C40.8758 28.9113 41.5079 28.9113 41.8342 29.2941C42.0289 29.5223 42.0879 29.8616 42.0137 30.3304Z" fill="#298FC2"/>
<path fill-rule="evenodd" clip-rule="evenodd" d="M52.7613 30.2153H50.9868C50.8345 30.2153 50.705 30.3263 50.6822 30.4768L50.6036 30.9748L50.4788 30.7944C50.0945 30.2349 49.2379 30.0478 48.3823 30.0478C46.4204 30.0478 44.7453 31.5381 44.419 33.6285C44.2498 34.6713 44.4899 35.6685 45.0797 36.3638C45.622 37.0031 46.395 37.2696 47.3161 37.2696C48.8969 37.2696 49.7735 36.2502 49.7735 36.2502L49.6944 36.745C49.6647 36.9341 49.8099 37.1037 50.0002 37.1037H51.5989C51.8521 37.1037 52.0678 36.9189 52.1075 36.6672L53.0676 30.5731C53.0969 30.3854 52.9515 30.2153 52.7613 30.2153ZM50.2865 33.6809C50.1163 34.6979 49.3101 35.3808 48.2832 35.3808C47.7687 35.3808 47.3557 35.215 47.091 34.9008C46.8288 34.5888 46.73 34.1446 46.8123 33.6498C46.9734 32.6413 47.7909 31.936 48.8021 31.936C49.3063 31.936 49.7161 32.1042 49.9861 32.421C50.2576 32.7412 50.365 33.1882 50.2865 33.6809Z" fill="#298FC2"/>
<path fill-rule="evenodd" clip-rule="evenodd" d="M54.7065 27.1101L53.1848 36.819C53.155 37.0073 53.3002 37.1767 53.4894 37.1767H55.0193C55.2737 37.1767 55.4894 36.992 55.5283 36.7403L57.0289 27.2063C57.0589 27.0181 56.9135 26.848 56.7243 26.848H55.0113C54.86 26.8485 54.7299 26.9595 54.7065 27.1101Z" fill="#298FC2"/>
</svg>
