<svg width="66" height="46" viewBox="0 0 66 46" fill="none" xmlns="http://www.w3.org/2000/svg">
<path d="M61.0702 1H4.92982C2.75944 1 1 2.75944 1 4.92982V40.8596C1 43.03 2.75944 44.7895 4.92982 44.7895H61.0702C63.2406 44.7895 65 43.03 65 40.8596V4.92982C65 2.75944 63.2406 1 61.0702 1Z" fill="white" stroke="#F3F3F3" stroke-width="1.03448"/>
<path d="M29.3527 31.2408H25.017L27.7289 15.5207H32.0644L29.3527 31.2408Z" fill="#15195A"/>
<path d="M45.07 15.905C44.2148 15.5869 42.8584 15.2357 41.1813 15.2357C36.8996 15.2357 33.8845 17.3762 33.866 20.4365C33.8304 22.6943 36.0247 23.9484 37.6659 24.7012C39.3432 25.4706 39.9135 25.9727 39.9135 26.6584C39.8964 27.7116 38.5581 28.197 37.3097 28.197C35.5787 28.197 34.6513 27.9467 33.2417 27.3608L32.6709 27.1096L32.0641 30.6384C33.081 31.0727 34.9545 31.4582 36.8996 31.4751C41.449 31.4751 44.4107 29.3677 44.4457 26.1065C44.463 24.317 43.3044 22.9457 40.8064 21.8253C39.2899 21.106 38.3612 20.6209 38.3612 19.885C38.3791 19.216 39.1468 18.5307 40.8586 18.5307C42.268 18.4971 43.3037 18.8148 44.0882 19.1327L44.4803 19.2996L45.07 15.905Z" fill="#15195A"/>
<path fill-rule="evenodd" clip-rule="evenodd" d="M52.8308 15.5207H56.1844L59.6822 31.2406H55.6678C55.6678 31.2406 55.2749 29.4344 55.1505 28.8824H49.5837C49.4228 29.3003 48.6738 31.2406 48.6738 31.2406H44.1245L50.5646 16.8249C51.0108 15.8048 51.7965 15.5207 52.8308 15.5207ZM52.5635 21.2734C52.5635 21.2734 51.1896 24.7686 50.8325 25.6717H54.4364C54.2581 24.8858 53.437 21.1228 53.437 21.1228L53.134 19.7684C53.0064 20.1171 52.8219 20.5967 52.6974 20.9202C52.613 21.1393 52.5562 21.2869 52.5635 21.2734Z" fill="#15195A"/>
<path fill-rule="evenodd" clip-rule="evenodd" d="M6.23103 15.5207H13.2067C14.1523 15.5538 14.9195 15.8381 15.1691 16.8421L16.6852 24.0649L16.6856 24.0663L17.1495 26.2402L21.3957 15.5207H25.9803L19.1653 31.2242H14.5805L10.7161 17.5648C9.38272 16.8339 7.86101 16.2461 6.15967 15.8383L6.23103 15.5207Z" fill="#15195A"/>
<path fill-rule="evenodd" clip-rule="evenodd" d="M37.8954 39.8154C37.8378 39.8259 37.7644 39.8312 37.6754 39.8312C37.4291 39.8312 37.2535 39.7578 37.1488 39.6111C37.044 39.4643 36.9916 39.2495 36.9916 38.9666V34.1408H37.6361V39.0138C37.6361 39.1185 37.6544 39.1919 37.6911 39.2338C37.7278 39.2757 37.7697 39.2967 37.8168 39.2967H37.8758C37.8941 39.2967 37.9216 39.2914 37.9583 39.281L38.0448 39.7683C38.0029 39.7893 37.953 39.805 37.8954 39.8154ZM35.962 39.1788V39.7368H32.9124V34.5809H35.8834V35.1311H33.5648V36.7502H35.5218V37.3082H33.5648V39.1788H35.962ZM40.5441 39.8312C40.8061 39.8312 41.0393 39.7919 41.2436 39.7133C41.448 39.6347 41.634 39.5429 41.8017 39.4382L41.5737 39.0138C41.4323 39.1028 41.2843 39.1749 41.1297 39.2299C40.9751 39.2849 40.8061 39.3124 40.6227 39.3124C40.2559 39.3124 39.9586 39.1932 39.7307 38.9548C39.5027 38.7164 39.3756 38.3928 39.3495 37.9841H41.9274C41.9379 37.937 41.9445 37.8806 41.9471 37.8152C41.9497 37.7497 41.951 37.6829 41.951 37.6147C41.951 37.3422 41.917 37.096 41.8488 36.8759C41.7807 36.6559 41.6824 36.4672 41.5541 36.31C41.4258 36.1528 41.2659 36.0324 41.0747 35.9485C40.8834 35.8646 40.6673 35.8227 40.4262 35.8227C40.2062 35.8227 39.994 35.8685 39.7896 35.9603C39.5853 36.052 39.4031 36.1843 39.2434 36.3572C39.0836 36.5301 38.9551 36.741 38.8582 36.9899C38.7613 37.2388 38.7128 37.5204 38.7128 37.8348C38.7128 38.1492 38.76 38.4296 38.8543 38.6758C38.9486 38.922 39.0783 39.1303 39.2434 39.3006C39.4084 39.471 39.6023 39.6019 39.825 39.6936C40.0476 39.7853 40.2873 39.8312 40.5441 39.8312ZM39.3416 37.5204H41.3851C41.3851 37.1327 41.3026 36.838 41.1375 36.6362C40.9725 36.4344 40.7406 36.3336 40.442 36.3336C40.3058 36.3336 40.1761 36.3598 40.0529 36.4122C39.9297 36.4646 39.8185 36.5419 39.7189 36.6441C39.6193 36.7462 39.5368 36.8706 39.4713 37.0174C39.4058 37.1642 39.3626 37.3318 39.3416 37.5204ZM44.4032 39.8312C44.6337 39.8312 44.8538 39.7879 45.0634 39.7015C45.2731 39.615 45.4643 39.4958 45.6372 39.3439L45.3542 38.9116C45.2338 39.0163 45.0988 39.1067 44.9495 39.1827C44.8001 39.2587 44.6364 39.2967 44.4582 39.2967C44.2853 39.2967 44.1256 39.2613 43.9788 39.1906C43.832 39.1199 43.7076 39.0203 43.6055 38.8919C43.5033 38.7636 43.4233 38.6103 43.3657 38.4321C43.3081 38.2539 43.2793 38.0549 43.2793 37.8348C43.2793 37.6147 43.3094 37.4143 43.3697 37.2335C43.43 37.0528 43.5125 36.8969 43.6173 36.7659C43.722 36.6349 43.8478 36.534 43.9945 36.4633C44.1413 36.3926 44.301 36.3572 44.474 36.3572C44.6259 36.3572 44.7634 36.3886 44.8866 36.4515C45.0098 36.5144 45.1263 36.5956 45.2363 36.6952L45.5665 36.2707C45.4303 36.1503 45.2731 36.0454 45.0949 35.9563C44.9167 35.8673 44.7019 35.8227 44.4504 35.8227C44.2041 35.8227 43.9696 35.8673 43.7469 35.9563C43.5243 36.0454 43.329 36.1764 43.1614 36.3493C42.9938 36.5222 42.8601 36.7331 42.7606 36.982C42.661 37.231 42.6112 37.5151 42.6112 37.8348C42.6112 38.1492 42.657 38.4308 42.7488 38.6797C42.8405 38.9286 42.9663 39.1382 43.126 39.3085C43.2858 39.4788 43.4758 39.6085 43.6959 39.6975C43.9159 39.7866 44.1517 39.8312 44.4032 39.8312ZM47.9676 39.7879C47.8444 39.8168 47.7226 39.8312 47.6021 39.8312C47.3977 39.8312 47.2262 39.7997 47.0873 39.7368C46.9484 39.674 46.8358 39.5875 46.7493 39.4775C46.6629 39.3674 46.6013 39.2338 46.5646 39.0766C46.5279 38.9194 46.5096 38.7465 46.5096 38.5579V36.4436H45.9437V35.9563L46.541 35.917L46.6196 34.8481H47.162V35.917H48.1916V36.4436H47.162V38.5658C47.162 38.8015 47.2052 38.9837 47.2916 39.112C47.3781 39.2403 47.5314 39.3046 47.7514 39.3046C47.8196 39.3046 47.8929 39.2941 47.9715 39.2731C48.0501 39.2521 48.1208 39.2285 48.1837 39.2024L48.3095 39.6897C48.2047 39.7264 48.0907 39.7591 47.9676 39.7879ZM49.7006 39.7368V37.2846C49.8317 36.9598 49.9849 36.7319 50.1604 36.6008C50.3359 36.4698 50.5049 36.4043 50.6674 36.4043C50.746 36.4043 50.8114 36.4096 50.8639 36.4201C50.9163 36.4305 50.9739 36.4462 51.0368 36.4672L51.1625 35.9013C51.042 35.8489 50.9057 35.8227 50.7538 35.8227C50.5337 35.8227 50.3307 35.8935 50.1447 36.0349C49.9586 36.1764 49.8002 36.3676 49.6692 36.6087H49.6456L49.5906 35.917H49.0561V39.7368H49.7006ZM53.8623 39.6975C53.6501 39.7866 53.4261 39.8312 53.1903 39.8312C52.9545 39.8312 52.7305 39.7866 52.5183 39.6975C52.3061 39.6085 52.1188 39.4788 51.9563 39.3085C51.7939 39.1382 51.6642 38.9286 51.5673 38.6797C51.4704 38.4308 51.4219 38.1492 51.4219 37.8348C51.4219 37.5151 51.4704 37.231 51.5673 36.982C51.6642 36.7331 51.7939 36.5222 51.9563 36.3493C52.1188 36.1764 52.3061 36.0454 52.5183 35.9563C52.7305 35.8673 52.9545 35.8227 53.1903 35.8227C53.4261 35.8227 53.6501 35.8673 53.8623 35.9563C54.0745 36.0454 54.2618 36.1764 54.4243 36.3493C54.5867 36.5222 54.7164 36.7331 54.8133 36.982C54.9102 37.231 54.9587 37.5151 54.9587 37.8348C54.9587 38.1492 54.9102 38.4308 54.8133 38.6797C54.7164 38.9286 54.5867 39.1382 54.4243 39.3085C54.2618 39.4788 54.0745 39.6085 53.8623 39.6975ZM53.1903 39.2967C53.0278 39.2967 52.8785 39.2613 52.7423 39.1906C52.6061 39.1199 52.4895 39.0203 52.3926 38.8919C52.2957 38.7636 52.221 38.6103 52.1686 38.4321C52.1161 38.2539 52.09 38.0549 52.09 37.8348C52.09 37.6147 52.1161 37.4143 52.1686 37.2335C52.221 37.0528 52.2957 36.8969 52.3926 36.7659C52.4895 36.6349 52.6061 36.534 52.7423 36.4633C52.8785 36.3926 53.0278 36.3572 53.1903 36.3572C53.3528 36.3572 53.5021 36.3926 53.6383 36.4633C53.7745 36.534 53.8912 36.6349 53.9881 36.7659C54.085 36.8969 54.1596 37.0528 54.2121 37.2335C54.2645 37.4143 54.2907 37.6147 54.2907 37.8348C54.2907 38.0549 54.2645 38.2539 54.2121 38.4321C54.1596 38.6103 54.085 38.7636 53.9881 38.8919C53.8912 39.0203 53.7745 39.1199 53.6383 39.1906C53.5021 39.2613 53.3528 39.2967 53.1903 39.2967ZM56.6093 36.9702V39.7368H55.9648V35.917H56.4992L56.5542 36.4672H56.5778C56.7612 36.2839 56.9537 36.1306 57.1555 36.0074C57.3573 35.8843 57.5917 35.8227 57.8589 35.8227C58.2624 35.8227 58.5571 35.9485 58.7432 36.2C58.9292 36.4515 59.0222 36.8235 59.0222 37.3161V39.7368H58.3777V37.4025C58.3777 37.041 58.3201 36.7803 58.2048 36.6205C58.0895 36.4607 57.9061 36.3808 57.6546 36.3808C57.4555 36.3808 57.2799 36.4305 57.128 36.5301C56.9761 36.6297 56.8032 36.7763 56.6093 36.9702Z" fill="#15195A"/>
</svg>
